{
  "asset": {
    "version": "2.0",
    "generator": "CortexEngine external provider importer"
  },
  "scene": 0,
  "scenes": [
    {
      "nodes": [
        0
      ]
    }
  ],
  "nodes": [
    {
      "mesh": 0
    }
  ],
  "meshes": [
    {
      "primitives": [
        {
          "attributes": {
            "POSITION": 0,
            "NORMAL": 1,
            "TEXCOORD_0": 2
          },
          "indices": 3,
          "mode": 4
        }
      ]
    }
  ],
  "buffers": [
    {
      "uri": "ndg-019d3e66-c8d0-7fd2-b5a8-fca1af183e43.bin",
      "byteLength": 61744
    }
  ],
  "bufferViews": [
    {
      "buffer": 0,
      "byteOffset": 0,
      "byteLength": 15252,
      "target": 34962
    },
    {
      "buffer": 0,
      "byteOffset": 15252,
      "byteLength": 15252,
      "target": 34962
    },
    {
      "buffer": 0,
      "byteOffset": 30504,
      "byteLength": 10168,
      "target": 34962
    },
    {
      "buffer": 0,
      "byteOffset": 40672,
      "byteLength": 21072,
      "target": 34963
    }
  ],
  "accessors": [
    {
      "bufferView": 0,
      "byteOffset": 0,
      "componentType": 5126,
      "count": 1271,
      "type": "VEC3",
      "min": [
        -0.8521559238433838,
        0.0,
        -0.8521559238433838
      ],
      "max": [
        0.8521559238433838,
        0.24532052874565125,
        0.8521559238433838
      ]
    },
    {
      "bufferView": 1,
      "byteOffset": 0,
      "componentType": 5126,
      "count": 1271,
      "type": "VEC3"
    },
    {
      "bufferView": 2,
      "byteOffset": 0,
      "componentType": 5126,
      "count": 1271,
      "type": "VEC2"
    },
    {
      "bufferView": 3,
      "byteOffset": 0,
      "componentType": 5125,
      "count": 5268,
      "type": "SCALAR"
    }
  ]
}